inDegrees=no
num_controls=7
num_derivatives=13
num_iterations=124
num_multipliers=7
num_parameters=0
num_slacks=7
num_states=26
objective=0.531963
objective_accelerations=0.089013
objective_balance=0.004096
objective_effort=0.059218
objective_height=0.370975
objective_ligament=0.008662
solver_duration=1267.639018
status=Solve_Succeeded
success=true
DataType=double
version=3
OpenSimVersion=4.5
endheader
time	/jointset/ground_pelvis/pelvis_tilt/value	/jointset/ground_pelvis/pelvis_tx/value	/jointset/ground_pelvis/pelvis_ty/value	/jointset/hip_r/hip_flexion_r/value	/jointset/hip_r/hip_adduction_r/value	/jointset/hip_r/hip_rotation_r/value	/jointset/back/lumbar_extension/value	/jointset/patellofemoral_r/patellar_flexion_r/value	/jointset/knee_r/knee_flexion_r/value	/jointset/knee_r/knee_adduction_r/value	/jointset/knee_r/knee_rotation_r/value	/jointset/ankle_r/ankle_angle_r/value	/jointset/subtalar_r/subtalar_angle_r/value	/jointset/ground_pelvis/pelvis_tilt/speed	/jointset/ground_pelvis/pelvis_tx/speed	/jointset/ground_pelvis/pelvis_ty/speed	/jointset/hip_r/hip_flexion_r/speed	/jointset/hip_r/hip_adduction_r/speed	/jointset/hip_r/hip_rotation_r/speed	/jointset/back/lumbar_extension/speed	/jointset/patellofemoral_r/patellar_flexion_r/speed	/jointset/knee_r/knee_flexion_r/speed	/jointset/knee_r/knee_adduction_r/speed	/jointset/knee_r/knee_rotation_r/speed	/jointset/ankle_r/ankle_angle_r/speed	/jointset/subtalar_r/subtalar_angle_r/speed	/forceset/tau_hip_flexion_r	/forceset/tau_hip_adduction_r	/forceset/tau_hip_rotation_r	/forceset/tau_knee_flexion_r	/forceset/tau_ankle_angle_r	/forceset/tau_subtalar_angle_r	/forceset/tau_lumbar_extension	lambda_cid13_p0	lambda_cid14_p0	lambda_cid14_p1	lambda_cid14_p2	lambda_cid14_p3	lambda_cid14_p4	lambda_cid14_p5	/jointset/ground_pelvis/pelvis_tilt/accel	/jointset/ground_pelvis/pelvis_tx/accel	/jointset/ground_pelvis/pelvis_ty/accel	/jointset/hip_r/hip_flexion_r/accel	/jointset/hip_r/hip_adduction_r/accel	/jointset/hip_r/hip_rotation_r/accel	/jointset/back/lumbar_extension/accel	/jointset/patellofemoral_r/patellar_flexion_r/accel	/jointset/knee_r/knee_flexion_r/accel	/jointset/knee_r/knee_adduction_r/accel	/jointset/knee_r/knee_rotation_r/accel	/jointset/ankle_r/ankle_angle_r/accel	/jointset/subtalar_r/subtalar_angle_r/accel	gamma_cid13_p0	gamma_cid14_p0	gamma_cid14_p1	gamma_cid14_p2	gamma_cid14_p3	gamma_cid14_p4	gamma_cid14_p5
0	-0.005911923840919302	0.09600961438454056	0.9427196134787542	0.1762555222360518	-0.2323168260083077	-0.2572682301678295	-0.038598046466844	0.07317863873450629	0.07317863873451017	0.1745289236735154	0.1703515723140104	0.03247278518263602	-0.003687525904977974	0	0	0	0	0	0	0	0	0	0	0	0	0	0.2428365366818696	-0.1312433457365152	-0.04004258645246241	-0.3837444383399456	0.3379906585601825	-0.1590575186876778	-0.1451510181601106	-38.95610121892042	57.99260065898326	-49.20518309412046	-2.797287145090145	-0.9174544412416449	-669.6988484941648	37.9395372831699	-4.130163733774017	-2.473598561646918	-1.069175553479344	16.00046856338546	0.3221773218563498	3.45812923696805	-6.305769368681304	14.56813339618275	14.56813339618414	-4.492231347273855	0.6205083639359366	3.884804798039096	1.206595224228228	1.979102141837832e-07	9.250079095854618e-08	-1.399412440275086e-06	4.236915453093874e-07	8.219274637337841e-08	8.223313962807716e-08	-6.751913915545202e-07
0.01	-0.006106444266167477	0.09588797083620888	0.9426681337043062	0.1770301136361501	-0.2322991693180767	-0.2570839243948572	-0.0389189820462553	0.07388675344896695	0.07388675344897214	0.1743052302480827	0.1703655269404541	0.03266216529999737	-0.003626823192007494	-0.03873653854617189	-0.02417550210589957	-0.01027915362976742	0.1541631690621172	0.003463389208358607	0.03667075890576901	-0.0636986886168654	0.1409844955529127	0.1409844955529234	-0.04440321274067693	0.00277996902992048	0.03773745143784347	0.01203965506697967	0.2370972039211178	-0.1493318656414264	-0.03878100532905664	-0.3788802723983815	0.3290399130382624	-0.1393307906415905	-0.1401308982467766	-38.98020729722319	55.90296556829863	-41.11373415014963	-3.96165610116541	-1.100490025483175	-669.999097000528	53.57572175139812	-3.720258984411953	-2.366528462197201	-1.004748632131238	15.01098258095957	0.3480799712916193	3.743096094102889	-6.32865451851528	13.76780095175989	13.76780095176063	-4.364223264304281	0.1052243595797934	3.697461473449363	1.187346208681864	2.720402237696812e-07	9.342807486832837e-08	-1.907693551897948e-06	3.959721125319887e-07	1.545231029289108e-07	-3.063762323419376e-07	-7.811245510793271e-07
0.02	-0.006683302090748311	0.09552917178139132	0.9425143697206793	0.1793236850275395	-0.2322489466855695	-0.2565386016574849	-0.03986225169390019	0.07598555178234669	0.07598555178234739	0.1736475332898716	0.1704069778945927	0.03322476916309539	-0.003448784816217431	-0.07646747986728683	-0.04743110129717661	-0.02045684183577643	0.303795998257622	0.006513188455355727	0.07220339288040303	-0.1244668136467888	0.2781367237823993	0.2781367237824141	-0.0868007065549411	0.005499265542227958	0.07464474914738359	0.02346713256392061	0.2313578711603686	-0.1674203855463333	-0.03751942420570598	-0.3740161064568033	0.3200891675163456	-0.119604062595497	-0.1351107783334446	-39.05125038295822	53.94755117257495	-33.02562908724794	-5.094819246337833	-1.478372815926682	-668.1619734397732	68.86674445077998	-3.929044288762715	-2.289617978722323	-1.048882468727665	15.09440059006294	0.2394593295840381	3.230504250741065	-5.719656651292953	13.80167993149752	13.80167993149756	-4.091087561991271	0.608373860413327	3.71877405237852	1.084159710220489	3.461702333555791e-07	9.435535877811057e-08	-2.41597466352081e-06	3.682526797545901e-07	2.268534594844431e-07	-6.949856043119525e-07	-8.87057710604134e-07
0.03	-0.007633335859755803	0.09494200152249474	0.9422586696930568	0.1830929750564827	-0.2321703989581829	-0.2556465520734095	-0.04139808399952787	0.07943816146287543	0.07943816146287845	0.1725764234333976	0.1704778570945779	0.03415205759858083	-0.00315962749354308	-0.1133482131310634	-0.0698862441020919	-0.03071229499314999	0.4493288898669642	0.009138958894381171	0.1060190723078368	-0.1822805510104696	0.4117396925625397	0.4117396925625437	-0.1270659709835617	0.008597227272307351	0.1106214111190086	0.03426517898242944	0.223719035888139	-0.180802224252224	-0.03553401941951533	-0.3670310426570326	0.30781831364415	-0.1020893082737371	-0.1290171486308412	-39.16687242410681	50.845646538861	-26.0934808501269	-6.049919333902572	-0.6539341814466012	-665.9604332927473	81.46359191668662	-3.538895842200845	-2.205910811196172	-1.018387002175754	14.17278376582347	0.2652261747286869	3.429104129693394	-5.749367808799313	13.0427078535354	13.04270785353376	-3.941302694935824	0.1487637017588093	3.508449049695874	1.062414370773309	3.883105679258315e-07	1.013660245722969e-07	-2.669314136408298e-06	5.126866719335546e-07	2.624872297444146e-07	-8.69904245324695e-07	-1.084365386112963e-06
0.04	-0.008946438560800468	0.09413379015958527	0.941899513081274	0.1882956040654131	-0.2320673754716727	-0.2544219448268689	-0.04349948078477054	0.08420742133165818	0.08420742133165832	0.171113249570304	0.1705773671863527	0.03543338000981132	-0.002765532254062187	-0.1490812662754791	-0.09163932209975394	-0.04114815866788304	0.5904637942544535	0.01140834028008334	0.1387149253732262	-0.2375797095699098	0.541466761433203	0.5414667614331959	-0.1652135078777165	0.01122544390052794	0.1454515442962893	0.04445471592522725	0.2160802006159036	-0.1941840629581172	-0.033548614633331	-0.3600459788572695	0.2955474597719492	-0.08457455395198087	-0.1229235189282374	-39.32382267551162	47.86379087823253	-19.15288440459324	-6.991999911036857	-0.01207763304892013	-661.876154071973	93.76465134916855	-3.699508264890641	-2.149205017271585	-1.084964572199564	14.21480314569235	0.1681815189193688	3.006538978332195	-5.216740890444887	13.02649994960209	13.02649994960205	-3.6675420550981	0.5144248400415561	3.48946829350974	0.9624578150782923	4.297913215679262e-07	1.085021209208008e-07	-2.917397080662066e-06	6.606702192662587e-07	2.973643693591168e-07	-1.04041689188471e-06	-1.283557072260638e-06
